# xmcd
#
# Track frame offsets:
#	182
#	20355
#	43157
#	58235
#	79272
#	107162
#	123715
#	149272
#	165755
#	183085
#
# Disc length: 2705 seconds
#
# Revision: 2
# Processed by: cddbd v1.4PL0 Copyright (c) Steve Scherf et al.
# Submitted via: audiograbber 1.81.03
#
DISCID=830a8f0a
DTITLE=Fleetwood Mac - Early Recordings - Live
DYEAR=1999
DGENRE=Rock
TTITLE0=Got To Move
TTITLE1=I Held My Baby Last Night
TTITLE2=My Baby's Sweeter
TTITLE3=My Baby's Good To Me
TTITLE4=Don't Know Which Way To Go
TTITLE5=Buzz Me
TTITLE6=The Worried Dream
TTITLE7=The World Keeps On Turning
TTITLE8=How Blue Can You Get
TTITLE9=Bleeding Heart
EXTD=
EXTT0=
EXTT1=
EXTT2=
EXTT3=
EXTT4=
EXTT5=
EXTT6=
EXTT7=
EXTT8=
EXTT9=
PLAYORDER=
